<?xml version="1.0" encoding="iso-8859-1"?>
<!-- Generator: Adobe Illustrator 19.0.0, SVG Export Plug-In . SVG Version: 6.00 Build 0)  -->
<svg version="1.1" id="Layer_1" xmlns="http://www.w3.org/2000/svg" xmlns:xlink="http://www.w3.org/1999/xlink" x="0px" y="0px"
	 viewBox="0 0 511.549 511.549" style="enable-background:new 0 0 511.549 511.549;" xml:space="preserve">
<path style="fill:#ECF4F7;" d="M107.294,404.135c115.2,115.2,274.773,141.653,356.693,59.733s55.467-242.347-59.733-356.693
	S129.481-34.478,47.561,47.442S-7.906,289.788,107.294,404.135L107.294,404.135z"/>
<path style="fill:#FFE079;" d="M102.174,503.122c5.12,0,8.533-3.413,8.533-8.533s-3.413-8.533-8.533-8.533
	c-5.12,0-8.533,3.413-8.533,8.533S97.054,503.122,102.174,503.122z M494.708,170.322c5.12,0,8.533-3.413,8.533-8.533
	c0-5.12-3.413-8.533-8.533-8.533s-8.533,3.413-8.533,8.533C486.174,166.908,489.588,170.322,494.708,170.322z M68.041,93.522
	c5.12,0,8.533-3.413,8.533-8.533c0-5.12-3.413-8.533-8.533-8.533c-5.12,0-8.533,3.413-8.533,8.533
	C59.508,90.108,62.921,93.522,68.041,93.522z"/>
<path style="fill:#51565F;" d="M329.161,507.388c-87.04,0-193.707-31.573-263.68-86.187c-1.707-1.707-2.56-4.267-0.853-5.973
	c1.707-1.707,4.267-2.56,5.973-0.853c99.84,77.653,282.453,109.227,362.667,62.293c1.707-0.853,4.267-0.853,5.973,1.707
	c0.853,1.707,0.853,4.267-1.707,5.973C410.228,499.708,371.828,507.388,329.161,507.388z M102.174,507.388
	c-6.827,0-12.8-5.973-12.8-12.8s5.973-12.8,12.8-12.8s12.8,5.973,12.8,12.8S109.001,507.388,102.174,507.388z M102.174,490.322
	c-2.56,0-4.267,1.707-4.267,4.267c0,2.56,1.707,4.267,4.267,4.267s4.267-1.707,4.267-4.267
	C106.441,492.029,104.734,490.322,102.174,490.322z M477.641,490.322c-0.853,0-1.707,0-2.56-0.853
	c-1.707-0.853-2.56-4.267-1.707-5.973c40.107-63.147,38.4-233.813-52.907-344.747c-1.707-1.707-0.853-4.267,0.853-5.973
	c1.707-1.707,4.267-0.853,5.973,0.853c93.867,114.347,94.72,289.28,53.76,354.987C480.201,489.468,479.348,490.322,477.641,490.322z
	 M284.788,440.828c-53.76,0-112.64-13.653-158.72-36.693c-1.707-0.853-2.56-3.413-1.707-5.973c0.853-1.707,3.413-2.56,5.973-1.707
	c84.48,42.667,215.893,52.907,267.947,0.853c55.467-55.467,37.547-173.227-36.693-247.467c-1.707-1.707-1.707-4.267,0-5.973
	s4.267-1.707,5.973,0c69.973,69.973,100.693,195.413,36.693,259.413C377.801,429.735,333.428,440.828,284.788,440.828z
	 M255.774,390.482c-8.533,0-17.92-0.853-26.453-2.56c-2.56-0.853-3.413-2.56-3.413-5.12c0.853-2.56,2.56-4.267,5.12-3.413
	c40.96,8.533,87.893-5.12,115.2-33.28c18.773-18.773,26.453-46.933,21.333-77.653c-5.12-29.867-20.48-59.733-43.52-82.773
	c-9.387-9.387-29.013-17.92-44.373-20.48c-2.56,0-4.267-2.56-3.413-5.12c0-2.56,2.56-4.267,5.12-3.413
	c17.067,2.56,39.253,12.8,49.493,23.04c46.933,46.933,66.56,127.147,21.333,172.373
	C328.308,376.828,291.614,390.482,255.774,390.482z M87.667,379.388c-0.853,0-2.56-0.853-3.413-1.707
	c-94.72-114.347-95.573-289.28-53.76-354.987c0.853-1.707,4.267-2.56,5.973-1.707c1.707,0.853,2.56,4.267,1.707,5.973
	c-40.107,64-38.4,233.813,53.76,345.6c1.707,1.707,0.853,4.267-0.853,5.973C89.374,379.388,88.521,379.388,87.667,379.388z
	 M25.374,379.388c-2.56,0-4.267-1.707-4.267-4.267v-4.267h-4.267c-2.56,0-4.267-1.707-4.267-4.267c0-2.56,1.707-4.267,4.267-4.267
	h4.267v-4.267c0-2.56,1.707-4.267,4.267-4.267s4.267,1.707,4.267,4.267v4.267h4.267c2.56,0,4.267,1.707,4.267,4.267
	c0,2.56-1.707,4.267-4.267,4.267h-4.267v4.267C29.641,377.682,27.934,379.388,25.374,379.388z M147.401,368.295
	c-0.853,0-2.56,0-3.413-0.853c-69.973-69.973-100.693-195.413-36.693-259.413c58.027-58.027,180.053-58.027,278.187-0.853
	c1.707,0.853,2.56,3.413,1.707,5.973c-0.853,1.707-3.413,2.56-5.973,1.707c-94.72-55.467-212.48-55.467-267.947-0.853
	c-55.467,55.467-37.547,173.227,36.693,247.467c1.707,1.707,1.707,4.267,0,5.973C149.108,368.295,148.254,368.295,147.401,368.295z
	 M230.174,353.788L230.174,353.788c-18.773-2.56-40.96-13.653-49.493-23.04c-46.933-46.933-66.56-127.147-21.333-172.373
	c29.013-29.013,80.213-43.52,123.733-34.987c2.56,0.853,3.413,2.56,3.413,5.12c-0.853,2.56-2.56,3.413-5.12,3.413
	c-40.96-8.533-87.893,5.12-115.2,33.28c-41.813,41.813-22.187,116.053,21.333,160.427c7.68,7.68,28.16,17.92,44.373,20.48
	c2.56,0,4.267,2.56,3.413,5.12C234.441,352.082,231.881,353.788,230.174,353.788z M280.521,323.068
	c-17.92,0-38.4-6.827-53.76-22.187c-18.773-18.773-18.773-34.987-17.92-58.027v-4.267c0-2.56,1.707-4.267,4.267-4.267
	s4.267,1.707,4.267,4.267v4.267c0,23.04,0,36.693,16.213,52.053c23.893,23.893,63.147,24.747,79.36,8.533
	c1.707-1.707,4.267-1.707,5.973,0c1.707,1.707,1.707,4.267,0,5.973C310.388,318.802,295.881,323.068,280.521,323.068z
	 M306.974,276.988c-2.56,0-4.267-1.707-4.267-4.267c0-23.04-7.68-40.107-24.747-57.173c-11.947-11.947-28.16-17.067-45.227-15.36
	s-34.133,11.093-42.667,23.893c-1.707,1.707-4.267,2.56-5.973,0.853c-1.707-1.707-2.56-4.267-0.853-5.973
	c10.24-14.507,28.16-25.6,48.64-27.307c19.627-1.707,38.4,4.267,52.053,17.92c18.773,18.773,26.453,37.547,26.453,63.147
	C311.241,275.282,309.534,276.988,306.974,276.988z M494.708,174.588c-6.827,0-12.8-5.973-12.8-12.8c0-6.827,5.973-12.8,12.8-12.8
	s12.8,5.973,12.8,12.8C507.508,168.615,501.534,174.588,494.708,174.588z M494.708,157.522c-2.56,0-4.267,1.707-4.267,4.267
	c0,2.56,1.707,4.267,4.267,4.267s4.267-1.707,4.267-4.267C498.974,159.228,497.268,157.522,494.708,157.522z M443.508,97.788
	c-0.853,0-1.707,0-2.56-0.853c-102.4-80.213-287.573-110.08-366.933-58.88c-1.707,0.853-4.267,0.853-5.973-0.853
	c-0.853-1.707-0.853-4.267,0.853-5.973c81.067-52.907,271.36-22.187,376.32,59.733c1.707,1.707,2.56,4.267,0.853,5.973
	C446.068,96.935,444.361,97.788,443.508,97.788z M68.041,97.788c-6.827,0-12.8-5.973-12.8-12.8s5.973-12.8,12.8-12.8
	s12.8,5.973,12.8,12.8S74.867,97.788,68.041,97.788z M68.041,80.722c-2.56,0-4.267,1.707-4.267,4.267
	c0,2.56,1.707,4.267,4.267,4.267c2.56,0,4.267-1.707,4.267-4.267C72.308,82.428,70.601,80.722,68.041,80.722z M486.174,46.588
	c-2.56,0-4.267-1.707-4.267-4.267v-12.8h-12.8c-2.56,0-4.267-1.707-4.267-4.267s1.707-4.267,4.267-4.267h12.8v-12.8
	c0-2.56,1.707-4.267,4.267-4.267s4.267,1.707,4.267,4.267v12.8h12.8c2.56,0,4.267,1.707,4.267,4.267s-1.707,4.267-4.267,4.267h-12.8
	v12.8C490.441,44.882,488.734,46.588,486.174,46.588z"/>
<g>
</g>
<g>
</g>
<g>
</g>
<g>
</g>
<g>
</g>
<g>
</g>
<g>
</g>
<g>
</g>
<g>
</g>
<g>
</g>
<g>
</g>
<g>
</g>
<g>
</g>
<g>
</g>
<g>
</g>
</svg>
